<svg xmlns="http://www.w3.org/2000/svg" width="309.149" height="446.217" viewBox="0 0 309.149 446.217">
  <g id="Group_8" data-name="Group 8" transform="translate(-583 -746)">
    <path id="Exclusion_1" data-name="Exclusion 1" d="M-1199.5,271a136.5,136.5,0,0,1-27.308-2.753,134.818,134.818,0,0,1-25.435-7.9,135.518,135.518,0,0,1-23.017-12.493,136.475,136.475,0,0,1-20.054-16.546,136.483,136.483,0,0,1-16.546-20.054,135.509,135.509,0,0,1-12.493-23.017,134.815,134.815,0,0,1-7.9-25.435A136.5,136.5,0,0,1-1335,135.5a136.5,136.5,0,0,1,2.753-27.308,134.813,134.813,0,0,1,7.9-25.435,135.507,135.507,0,0,1,12.493-23.017,136.483,136.483,0,0,1,16.546-20.054,136.475,136.475,0,0,1,20.054-16.546,135.518,135.518,0,0,1,23.017-12.493,134.815,134.815,0,0,1,25.435-7.9A136.5,136.5,0,0,1-1199.5,0a136.5,136.5,0,0,1,27.308,2.753,134.818,134.818,0,0,1,25.435,7.9,135.519,135.519,0,0,1,23.017,12.493,136.481,136.481,0,0,1,20.054,16.546,136.478,136.478,0,0,1,16.546,20.054,135.53,135.53,0,0,1,12.493,23.017,134.815,134.815,0,0,1,7.9,25.435A136.506,136.506,0,0,1-1064,135.5a136.5,136.5,0,0,1-2.753,27.308,134.815,134.815,0,0,1-7.9,25.435,135.522,135.522,0,0,1-12.493,23.017,136.473,136.473,0,0,1-16.546,20.054,136.484,136.484,0,0,1-20.054,16.546,135.519,135.519,0,0,1-23.017,12.493,134.821,134.821,0,0,1-25.435,7.9A136.5,136.5,0,0,1-1199.5,271Zm0-231a135.3,135.3,0,0,0-43.532,7.144,134.932,134.932,0,0,0-37.661,19.864,136.008,136.008,0,0,0-29.439,30.235A134.793,134.793,0,0,0-1329,135.5a134.8,134.8,0,0,0,18.866,38.256,136.009,136.009,0,0,0,29.439,30.235,134.934,134.934,0,0,0,37.661,19.865A135.3,135.3,0,0,0-1199.5,231a135.3,135.3,0,0,0,43.532-7.144,134.936,134.936,0,0,0,37.661-19.865,136.011,136.011,0,0,0,29.439-30.235A134.792,134.792,0,0,0-1070,135.5a134.792,134.792,0,0,0-18.866-38.257,136.01,136.01,0,0,0-29.439-30.235,134.934,134.934,0,0,0-37.661-19.864A135.3,135.3,0,0,0-1199.5,40Z" transform="translate(1918 746)"/>
    <circle id="Ellipse_4" data-name="Ellipse 4" cx="79.5" cy="79.5" r="79.5" transform="translate(639 802)"/>
    <rect id="Rectangle_5" data-name="Rectangle 5" width="20" height="263" transform="translate(583 920)"/>
    <path id="Path_1" data-name="Path 1" d="M0,0H19.792V218l.165,10.168L0,218Z" transform="matrix(0.891, -0.454, 0.454, 0.891, 770.781, 988.918)"/>
    <rect id="Rectangle_7" data-name="Rectangle 7" width="6" height="69" transform="translate(583 878)"/>
  </g>
</svg>
