<?xml version="1.0" standalone="no"?>
<!DOCTYPE svg PUBLIC "-//W3C//DTD SVG 20010904//EN"
 "http://www.w3.org/TR/2001/REC-SVG-20010904/DTD/svg10.dtd">
<svg version="1.0" xmlns="http://www.w3.org/2000/svg"
 width="447.000000pt" height="447.000000pt" viewBox="0 0 447.000000 447.000000"
 preserveAspectRatio="xMidYMid meet">
<metadata>
Created by potrace 1.11, written by Peter Selinger 2001-2013
</metadata>
<g transform="translate(0.000000,447.000000) scale(0.100000,-0.100000)"
fill="#000000" stroke="none">
<path d="M1918 4325 c-1 -1 -28 -6 -58 -9 -394 -42 -809 -328 -1007 -696 -25
-48 -87 -186 -89 -200 0 -3 -9 -32 -19 -65 -10 -33 -26 -105 -36 -160 -16 -92
-17 -217 -18 -1647 l-1 -1548 100 0 100 0 0 1132 0 1132 51 -72 c210 -299 569
-516 924 -560 74 -9 292 -9 360 0 106 13 254 55 358 101 l57 26 14 -27 c84
-167 426 -839 518 -1017 64 -126 172 -339 240 -472 l123 -243 112 0 112 0 -68
133 c-68 132 -244 476 -523 1027 -83 162 -195 381 -249 487 -55 105 -99 198
-99 205 0 8 30 36 66 63 139 104 286 287 372 460 93 187 133 356 137 575 3
162 -5 236 -45 385 -39 149 -111 299 -210 437 -59 83 -207 231 -295 296 -143
106 -353 198 -540 238 -69 14 -375 30 -387 19z m323 -409 c203 -32 429 -124
598 -244 71 -51 216 -190 273 -262 85 -109 171 -268 212 -392 17 -51 14 -65
-33 -174 -186 -423 -552 -714 -1006 -800 -94 -18 -320 -25 -410 -12 -309 43
-568 171 -785 388 -145 144 -245 299 -315 485 l-26 69 22 60 c108 299 333 565
605 716 159 88 346 152 484 166 36 4 67 8 69 10 4 4 277 -4 312 -10z"/>
<path d="M1878 3750 c-230 -47 -434 -205 -541 -416 -31 -62 -66 -164 -75 -219
-15 -90 -6 -267 16 -348 98 -347 409 -585 764 -585 390 0 714 273 787 664 5
27 8 96 7 154 -8 284 -157 528 -408 669 -164 92 -357 121 -550 81z"/>
</g>
</svg>
